<mxfile host="app.diagrams.net" modified="2024-01-04T13:33:12.588Z" agent="Mozilla/5.0 (Windows NT 10.0; Win64; x64) AppleWebKit/537.36 (KHTML, like Gecko) Chrome/120.0.0.0 Safari/537.36" etag="8UAW4hWwUKyLnM0vnqN_" version="22.1.16" type="device">
  <diagram name="Page-1" id="hFHJ6-wDAofgDGEkp8fl">
    <mxGraphModel dx="880" dy="468" grid="1" gridSize="10" guides="1" tooltips="1" connect="1" arrows="1" fold="1" page="1" pageScale="1" pageWidth="850" pageHeight="1100" math="0" shadow="0">
      <root>
        <mxCell id="0" />
        <mxCell id="1" parent="0" />
        <mxCell id="DKkZ-yMCeKY4kpjBiDxx-10" value="" style="edgeStyle=orthogonalEdgeStyle;rounded=0;orthogonalLoop=1;jettySize=auto;html=1;" parent="1" source="DKkZ-yMCeKY4kpjBiDxx-1" target="DKkZ-yMCeKY4kpjBiDxx-2" edge="1">
          <mxGeometry relative="1" as="geometry" />
        </mxCell>
        <mxCell id="DKkZ-yMCeKY4kpjBiDxx-1" value="Start" style="strokeWidth=2;html=1;shape=mxgraph.flowchart.start_1;whiteSpace=wrap;" parent="1" vertex="1">
          <mxGeometry x="325" y="40" width="75" height="30" as="geometry" />
        </mxCell>
        <mxCell id="DKkZ-yMCeKY4kpjBiDxx-11" value="" style="edgeStyle=orthogonalEdgeStyle;rounded=0;orthogonalLoop=1;jettySize=auto;html=1;" parent="1" source="DKkZ-yMCeKY4kpjBiDxx-2" target="DKkZ-yMCeKY4kpjBiDxx-3" edge="1">
          <mxGeometry relative="1" as="geometry" />
        </mxCell>
        <mxCell id="DKkZ-yMCeKY4kpjBiDxx-2" value="Membuat&amp;nbsp;&lt;br&gt;Socket" style="rounded=1;whiteSpace=wrap;html=1;absoluteArcSize=1;arcSize=14;strokeWidth=2;" parent="1" vertex="1">
          <mxGeometry x="303.75" y="100" width="117.5" height="50" as="geometry" />
        </mxCell>
        <mxCell id="DKkZ-yMCeKY4kpjBiDxx-12" value="" style="edgeStyle=orthogonalEdgeStyle;rounded=0;orthogonalLoop=1;jettySize=auto;html=1;" parent="1" source="DKkZ-yMCeKY4kpjBiDxx-3" target="DKkZ-yMCeKY4kpjBiDxx-4" edge="1">
          <mxGeometry relative="1" as="geometry" />
        </mxCell>
        <mxCell id="DKkZ-yMCeKY4kpjBiDxx-3" value="Menunggu client&amp;nbsp; koneksi ke socket&lt;br&gt;" style="rounded=1;whiteSpace=wrap;html=1;absoluteArcSize=1;arcSize=14;strokeWidth=2;" parent="1" vertex="1">
          <mxGeometry x="303.75" y="190" width="117.5" height="50" as="geometry" />
        </mxCell>
        <mxCell id="DKkZ-yMCeKY4kpjBiDxx-13" value="" style="edgeStyle=orthogonalEdgeStyle;rounded=0;orthogonalLoop=1;jettySize=auto;html=1;" parent="1" source="DKkZ-yMCeKY4kpjBiDxx-4" target="DKkZ-yMCeKY4kpjBiDxx-5" edge="1">
          <mxGeometry relative="1" as="geometry" />
        </mxCell>
        <mxCell id="DKkZ-yMCeKY4kpjBiDxx-17" style="edgeStyle=orthogonalEdgeStyle;rounded=0;orthogonalLoop=1;jettySize=auto;html=1;exitX=0;exitY=0.5;exitDx=0;exitDy=0;exitPerimeter=0;entryX=0;entryY=0.5;entryDx=0;entryDy=0;" parent="1" source="DKkZ-yMCeKY4kpjBiDxx-4" target="DKkZ-yMCeKY4kpjBiDxx-3" edge="1">
          <mxGeometry relative="1" as="geometry">
            <mxPoint x="270" y="210" as="targetPoint" />
            <Array as="points">
              <mxPoint x="270" y="330" />
              <mxPoint x="270" y="215" />
            </Array>
          </mxGeometry>
        </mxCell>
        <mxCell id="DKkZ-yMCeKY4kpjBiDxx-4" value="Client &lt;br&gt;terhubung?" style="strokeWidth=2;html=1;shape=mxgraph.flowchart.decision;whiteSpace=wrap;" parent="1" vertex="1">
          <mxGeometry x="308.75" y="280" width="107.5" height="100" as="geometry" />
        </mxCell>
        <mxCell id="DKkZ-yMCeKY4kpjBiDxx-18" value="" style="edgeStyle=orthogonalEdgeStyle;rounded=0;orthogonalLoop=1;jettySize=auto;html=1;" parent="1" source="DKkZ-yMCeKY4kpjBiDxx-5" target="DKkZ-yMCeKY4kpjBiDxx-6" edge="1">
          <mxGeometry relative="1" as="geometry" />
        </mxCell>
        <mxCell id="DKkZ-yMCeKY4kpjBiDxx-5" value="Menunggu dan menerima pesan dari client" style="rounded=1;whiteSpace=wrap;html=1;absoluteArcSize=1;arcSize=14;strokeWidth=2;" parent="1" vertex="1">
          <mxGeometry x="480" y="305" width="117.5" height="50" as="geometry" />
        </mxCell>
        <mxCell id="DKkZ-yMCeKY4kpjBiDxx-19" value="" style="edgeStyle=orthogonalEdgeStyle;rounded=0;orthogonalLoop=1;jettySize=auto;html=1;" parent="1" source="DKkZ-yMCeKY4kpjBiDxx-6" target="DKkZ-yMCeKY4kpjBiDxx-7" edge="1">
          <mxGeometry relative="1" as="geometry" />
        </mxCell>
        <mxCell id="DKkZ-yMCeKY4kpjBiDxx-23" style="edgeStyle=orthogonalEdgeStyle;rounded=0;orthogonalLoop=1;jettySize=auto;html=1;exitX=0;exitY=0.5;exitDx=0;exitDy=0;exitPerimeter=0;entryX=0;entryY=0.5;entryDx=0;entryDy=0;" parent="1" source="DKkZ-yMCeKY4kpjBiDxx-6" target="DKkZ-yMCeKY4kpjBiDxx-8" edge="1">
          <mxGeometry relative="1" as="geometry">
            <mxPoint x="440" y="660" as="targetPoint" />
            <Array as="points">
              <mxPoint x="441" y="450" />
              <mxPoint x="441" y="655" />
            </Array>
          </mxGeometry>
        </mxCell>
        <mxCell id="DKkZ-yMCeKY4kpjBiDxx-6" value="pesan != &#39;end&#39;" style="strokeWidth=2;html=1;shape=mxgraph.flowchart.decision;whiteSpace=wrap;" parent="1" vertex="1">
          <mxGeometry x="485" y="400" width="107.5" height="100" as="geometry" />
        </mxCell>
        <mxCell id="DKkZ-yMCeKY4kpjBiDxx-21" style="edgeStyle=orthogonalEdgeStyle;rounded=0;orthogonalLoop=1;jettySize=auto;html=1;exitX=1;exitY=0.5;exitDx=0;exitDy=0;entryX=1;entryY=0.25;entryDx=0;entryDy=0;" parent="1" source="DKkZ-yMCeKY4kpjBiDxx-7" target="DKkZ-yMCeKY4kpjBiDxx-5" edge="1">
          <mxGeometry relative="1" as="geometry">
            <mxPoint x="650" y="320" as="targetPoint" />
            <Array as="points">
              <mxPoint x="651" y="565" />
              <mxPoint x="651" y="318" />
            </Array>
          </mxGeometry>
        </mxCell>
        <mxCell id="DKkZ-yMCeKY4kpjBiDxx-7" value="Menyimpan pesan ke MultiChain" style="rounded=1;whiteSpace=wrap;html=1;absoluteArcSize=1;arcSize=14;strokeWidth=2;" parent="1" vertex="1">
          <mxGeometry x="480" y="540" width="117.5" height="50" as="geometry" />
        </mxCell>
        <mxCell id="DKkZ-yMCeKY4kpjBiDxx-24" value="" style="edgeStyle=orthogonalEdgeStyle;rounded=0;orthogonalLoop=1;jettySize=auto;html=1;" parent="1" source="DKkZ-yMCeKY4kpjBiDxx-8" target="DKkZ-yMCeKY4kpjBiDxx-9" edge="1">
          <mxGeometry relative="1" as="geometry" />
        </mxCell>
        <mxCell id="DKkZ-yMCeKY4kpjBiDxx-8" value="Menutup Socket" style="rounded=1;whiteSpace=wrap;html=1;absoluteArcSize=1;arcSize=14;strokeWidth=2;" parent="1" vertex="1">
          <mxGeometry x="480" y="630" width="117.5" height="50" as="geometry" />
        </mxCell>
        <mxCell id="DKkZ-yMCeKY4kpjBiDxx-9" value="End" style="strokeWidth=2;html=1;shape=mxgraph.flowchart.start_1;whiteSpace=wrap;" parent="1" vertex="1">
          <mxGeometry x="501.25" y="710" width="75" height="30" as="geometry" />
        </mxCell>
        <mxCell id="DKkZ-yMCeKY4kpjBiDxx-25" value="Tidak" style="text;html=1;strokeColor=none;fillColor=none;align=center;verticalAlign=middle;whiteSpace=wrap;rounded=0;" parent="1" vertex="1">
          <mxGeometry x="220" y="260" width="60" height="30" as="geometry" />
        </mxCell>
        <mxCell id="DKkZ-yMCeKY4kpjBiDxx-26" value="Ya" style="text;html=1;strokeColor=none;fillColor=none;align=center;verticalAlign=middle;whiteSpace=wrap;rounded=0;" parent="1" vertex="1">
          <mxGeometry x="410" y="305" width="60" height="30" as="geometry" />
        </mxCell>
        <mxCell id="DKkZ-yMCeKY4kpjBiDxx-27" value="Tidak" style="text;html=1;strokeColor=none;fillColor=none;align=center;verticalAlign=middle;whiteSpace=wrap;rounded=0;" parent="1" vertex="1">
          <mxGeometry x="395" y="540" width="60" height="30" as="geometry" />
        </mxCell>
        <mxCell id="DKkZ-yMCeKY4kpjBiDxx-28" value="Ya" style="text;html=1;strokeColor=none;fillColor=none;align=center;verticalAlign=middle;whiteSpace=wrap;rounded=0;" parent="1" vertex="1">
          <mxGeometry x="490" y="500" width="60" height="30" as="geometry" />
        </mxCell>
      </root>
    </mxGraphModel>
  </diagram>
</mxfile>
